<svg width="26" height="41" viewBox="0 0 26 41" fill="none" xmlns="http://www.w3.org/2000/svg">
<path fill-rule="evenodd" clip-rule="evenodd" d="M9.23123 14.2312C9.53954 13.9229 10.0394 13.9229 10.3477 14.2312L13.7688 17.6523C14.0771 17.9606 14.0771 18.4605 13.7688 18.7688C13.4605 19.0771 12.9606 19.0771 12.6523 18.7688L9.23123 15.3477C8.92292 15.0394 8.92292 14.5395 9.23123 14.2312Z" fill="#2E2B29"/>
<path fill-rule="evenodd" clip-rule="evenodd" d="M16.7688 18.2312C17.0771 18.5395 17.0771 19.0394 16.7688 19.3477L13.3477 22.7688C13.0394 23.0771 12.5395 23.0771 12.2312 22.7688C11.9229 22.4605 11.9229 21.9606 12.2312 21.6523L15.6523 18.2312C15.9606 17.9229 16.4605 17.9229 16.7688 18.2312Z" fill="#2E2B29"/>
<path fill-rule="evenodd" clip-rule="evenodd" d="M12.6267 11.8494C12.1132 11.9563 11.6876 12.335 11.2249 12.7943C10.9044 13.1125 10.4318 13.0552 10.1696 12.6662C9.90726 12.2773 9.95451 11.704 10.2751 11.3858C10.7291 10.9351 11.4285 10.2522 12.3733 10.0557C13.3644 9.84958 14.4682 10.1995 15.7104 11.3718C16.0374 11.6803 16.0963 12.252 15.842 12.6487C15.5877 13.0454 15.1165 13.1168 14.7895 12.8083C13.7818 11.8573 13.0939 11.7523 12.6267 11.8494Z" fill="#2E2B29"/>
<path fill-rule="evenodd" clip-rule="evenodd" d="M13.1531 10.0001C13.6264 10.0053 14.0056 10.3677 13.9999 10.8095L13.7142 33.2095C13.7086 33.6513 13.3203 34.0052 12.8469 33.9999C12.3736 33.9947 11.9944 33.6323 12.0001 33.1905L12.2858 10.7905C12.2914 10.3487 12.6797 9.9948 13.1531 10.0001Z" fill="#2E2B29"/>
<path d="M17.2901 2.28682C17.9178 4.08007 17.5132 6.26026 17.1156 7.83039C17.0094 8.24956 16.5836 8.50331 16.1644 8.39716C15.7452 8.29101 15.4915 7.86516 15.5976 7.446C15.9964 5.87122 16.2694 4.11042 15.8122 2.80409C15.5963 2.18731 15.2192 1.67802 14.5875 1.31956C14.1072 1.04698 13.4451 0.84243 12.5361 0.775699L11.4862 0.759338C11.8684 0.745852 12.2174 0.752308 12.5361 0.775699L16.4522 0.836729C16.8336 1.26822 17.1062 1.7612 17.2901 2.28682Z" fill="#159A4A"/>
<path d="M20.9208 8.10054C21.4361 8.52474 21.854 9.13114 22.1436 9.93924C22.6467 11.3429 22.5945 13.0706 21.8403 14.5335C21.5205 15.1538 21.0786 15.7184 20.5115 16.1864L17.87 17.4376C17.6883 17.4447 17.5143 17.4583 17.3511 17.4773C16.9227 17.5271 16.5347 17.2212 16.4832 16.793C16.4318 16.3648 16.7363 15.9756 17.1643 15.9226C18.8946 15.7082 19.9202 14.8409 20.4485 13.816C20.9938 12.7584 21.0337 11.4834 20.6696 10.4675C20.4586 9.8787 20.1876 9.52511 19.9257 9.30953C19.6644 9.0945 19.3729 8.98441 19.0691 8.94315L20.9208 8.10054Z" fill="#159A4A"/>
<path d="M21.2211 16.5837C22.0183 16.9437 22.7549 17.5059 23.2713 18.3451C23.7877 19.1842 24.0494 20.244 23.9923 21.5423C23.921 23.1609 23.4141 24.3917 22.5402 25.2842C21.679 26.1636 20.5363 26.6374 19.3342 26.8955C19.1508 26.9349 18.9647 26.9696 18.7763 27L17 25.3957C17.2809 25.359 18.7416 25.452 19.0041 25.3957C20.0358 25.1742 20.8518 24.8006 21.4232 24.2171C21.9819 23.6466 22.3815 22.7989 22.4397 21.4756C22.4862 20.4204 22.2709 19.6745 21.9434 19.1424C21.6159 18.6103 21.1417 18.2356 20.5748 17.9795C19.7961 17.6278 18.8716 17.5151 18.036 17.5375V16.0023C19.0473 15.9796 20.1959 16.1206 21.2211 16.5837Z" fill="#159A4A"/>
<path fill-rule="evenodd" clip-rule="evenodd" d="M8.83292 4.11848C8.34832 5.5977 8.6716 7.38469 9.17734 8.40046C9.36829 8.78398 9.20159 9.24458 8.805 9.42923C8.40842 9.61389 7.93213 9.45268 7.74118 9.06916C7.09572 7.77278 6.68282 5.57772 7.31339 3.65294C7.63559 2.66943 8.23762 1.73859 9.23479 1.05974C10.2296 0.382513 11.5529 2.32756e-06 13.2411 0C14.8706 -2.26628e-06 16.1406 0.319249 17.0892 0.92703C18.0507 1.54306 18.6068 2.4074 18.8884 3.35087C19.2796 4.66179 19.1495 6.15869 18.881 7.48501C19.2017 7.42337 19.5467 7.39298 19.9027 7.41397C20.4673 7.44725 21.066 7.61104 21.6219 7.9904C22.1771 8.36927 22.647 8.93412 23.0019 9.70633C23.6183 11.0477 23.6956 12.7476 23.0403 14.2386C22.7624 14.8709 22.3563 15.4574 21.8159 15.9581C22.2694 16.051 22.7201 16.187 23.1496 16.3769C23.9673 16.7385 24.7228 17.3031 25.2526 18.1459C25.7823 18.9886 26.0507 20.0529 25.9921 21.3567C25.9312 22.7109 25.5771 23.7983 24.9488 24.6459C24.3192 25.4953 23.4608 26.0411 22.5046 26.3882C20.6451 27.0631 18.2774 27.0267 16.1434 26.9749C15.7034 26.9642 15.3556 26.6106 15.3667 26.1851C15.3777 25.7596 15.7434 25.4233 16.1834 25.434C18.3926 25.4876 20.4294 25.4949 21.9445 24.945C22.6756 24.6797 23.247 24.296 23.6533 23.7478C24.0609 23.198 24.3488 22.4198 24.3996 21.2898C24.4473 20.2301 24.2264 19.481 23.8905 18.9466C23.5546 18.4122 23.0682 18.0359 22.4868 17.7788C21.2922 17.2505 19.7631 17.259 18.7048 17.4558C18.2737 17.5359 17.8568 17.2639 17.7723 16.8473C17.6878 16.4307 17.9676 16.0264 18.398 15.9432C20.1384 15.6066 21.1142 14.6804 21.5733 13.6357C22.0471 12.5577 21.9915 11.3032 21.5453 10.3324C21.2867 9.76972 20.985 9.44234 20.7028 9.2498C20.4214 9.05774 20.1172 8.97092 19.8057 8.95255C19.1496 8.91387 18.4973 9.18404 18.1994 9.37609C17.9232 9.5542 17.5617 9.54801 17.2921 9.36057C17.0225 9.17312 16.9014 8.84369 16.988 8.53372C17.4311 6.94828 17.7653 5.14675 17.3569 3.77827C17.1625 3.12678 16.8054 2.59419 16.2089 2.21204C15.5995 1.82163 14.6668 1.54144 13.2411 1.54144C11.8022 1.54144 10.8203 1.86542 10.1523 2.32019C9.4867 2.77333 9.0683 3.39999 8.83292 4.11848Z" fill="#2E2B29"/>
<path fill-rule="evenodd" clip-rule="evenodd" d="M5.9786 9.5738C6.61186 9.5344 7.24143 9.80957 7.52895 10.0052C7.88243 10.2457 8.36002 10.1482 8.59568 9.78747C8.83134 9.42675 8.73583 8.93937 8.38235 8.69889C7.90064 8.37116 6.94284 7.94092 5.88499 8.00673C5.34009 8.04063 4.76218 8.20745 4.22566 8.59384C3.68983 8.97973 3.23629 9.55503 2.89374 10.3415C2.29875 11.7077 2.2242 13.4391 2.85668 14.9577C3.12489 15.6018 3.51688 16.199 4.03843 16.7091C3.60068 16.8037 3.16572 16.9422 2.75114 17.1356C1.9619 17.5039 1.2327 18.079 0.7214 18.9373C0.210157 19.7956 -0.0489273 20.8796 0.00765228 22.2076C0.0643263 23.5378 0.399012 24.6172 0.987091 25.4697C1.57548 26.3227 2.37758 26.8906 3.27405 27.2652C5.02462 27.9967 7.24193 28.0292 9.24596 27.9888C9.67071 27.9802 10.0082 27.6219 9.99985 27.1884C9.99146 26.755 9.64032 26.4105 9.21557 26.4191C7.17839 26.4602 5.27176 26.4035 3.85701 25.8123C3.17083 25.5256 2.62991 25.1239 2.24512 24.566C1.86002 24.0078 1.59135 23.2352 1.54466 22.1394C1.49868 21.0601 1.71182 20.2971 2.03605 19.7528C2.36022 19.2086 2.82973 18.8253 3.39093 18.5634C4.54393 18.0254 6.01975 18.034 7.04115 18.2344C7.45725 18.3161 7.85971 18.039 7.94127 17.6147C8.02283 17.1903 7.75277 16.7786 7.33728 16.6938C5.6575 16.351 4.71572 15.4077 4.27257 14.3437C3.81531 13.2457 3.86896 11.968 4.29961 10.9792C4.54919 10.4061 4.84042 10.0727 5.11273 9.87655C5.38435 9.68094 5.67794 9.5925 5.9786 9.5738Z" fill="#2E2B29"/>
<path fill-rule="evenodd" clip-rule="evenodd" d="M9.52094 32.0843C9.60357 33.5539 9.8792 35.4668 10.4531 36.9966C10.7768 37.8595 11.1707 38.5327 11.6202 38.9494C12.0417 39.3402 12.5156 39.5144 13.1163 39.4038C14.41 39.1657 15.289 38.0128 15.8432 36.3591C16.3163 34.9471 16.4885 33.3385 16.5003 32.1294C15.1276 31.6638 13.6734 31.5191 12.3715 31.5745C11.1952 31.6246 10.1929 31.8355 9.52094 32.0843ZM12.3104 30.0125C13.9178 29.9441 15.7727 30.1475 17.5131 30.8456C17.794 30.9583 17.9831 31.2354 17.9931 31.5491C18.0368 32.9176 17.8823 35.0128 17.2582 36.8749C16.6424 38.7126 15.4809 40.5561 13.3768 40.9434C12.2787 41.1455 11.3514 40.792 10.6242 40.1178C9.92495 39.4695 9.42251 38.5402 9.05712 37.5662C8.32479 35.6141 8.04324 33.2094 8.00029 31.5969C7.9922 31.2931 8.15368 31.0119 8.41433 30.876C9.29105 30.4189 10.7175 30.0803 12.3104 30.0125Z" fill="#2E2B29"/>
</svg>
