<?xml version="1.0" standalone="no"?>
<!DOCTYPE svg PUBLIC "-//W3C//DTD SVG 20010904//EN"
 "http://www.w3.org/TR/2001/REC-SVG-20010904/DTD/svg10.dtd">
<svg version="1.0" xmlns="http://www.w3.org/2000/svg"
 width="1312.000000pt" height="1312.000000pt" viewBox="0 0 1312.000000 1312.000000"
 preserveAspectRatio="xMidYMid meet">
<metadata>
Created by potrace 1.11, written by Peter Selinger 2001-2013
</metadata>
<g transform="translate(0.000000,1312.000000) scale(0.100000,-0.100000)"
fill="#000000" stroke="none">
<path d="M6418 13115 c-1 -1 -37 -6 -78 -9 -96 -9 -127 -13 -225 -31 -121 -22
-138 -25 -160 -32 -11 -4 -26 -8 -33 -9 -21 -4 -187 -56 -197 -62 -5 -4 -15
-7 -22 -8 -24 -4 -240 -114 -303 -154 -261 -169 -473 -413 -591 -681 -31 -72
-78 -199 -84 -229 -2 -8 -4 -15 -5 -15 -1 0 -3 -7 -5 -15 -1 -8 -10 -42 -19
-76 -9 -33 -18 -78 -21 -100 -2 -21 -7 -50 -9 -64 -9 -47 -18 -125 -21 -198
-2 -39 -7 -77 -10 -82 -3 -6 -2 -10 3 -10 6 0 7 -14 2 -34 -4 -19 -6 -37 -4
-39 3 -2 6 -49 9 -103 5 -118 12 -198 21 -237 6 -30 12 -62 19 -114 6 -50 66
-286 77 -307 9 -16 8 -18 -8 -11 -11 4 -26 9 -34 10 -8 1 -40 9 -70 18 -30 8
-62 15 -70 15 -8 0 -26 3 -40 7 -21 5 -55 8 -195 17 -26 1 -190 -17 -190 -22
0 -1 -12 -3 -26 -5 -20 -3 -76 -17 -119 -30 -58 -18 -206 -97 -262 -139 -89
-67 -137 -113 -227 -220 -67 -81 -163 -252 -211 -377 -11 -30 -25 -63 -30 -74
-9 -21 -27 -79 -35 -111 -2 -10 -9 -37 -15 -59 -15 -57 -17 -65 -25 -115 -4
-25 -9 -54 -11 -65 -12 -59 -18 -156 -17 -290 0 -194 9 -279 45 -430 11 -49
21 -96 21 -102 0 -7 4 -13 9 -13 4 0 7 -3 6 -7 -5 -23 64 -196 125 -313 70
-133 168 -270 270 -376 l39 -42 -28 -6 c-16 -4 -38 -8 -49 -11 -11 -2 -36 -9
-55 -15 -19 -6 -46 -13 -59 -16 -13 -3 -37 -12 -52 -20 -16 -8 -32 -15 -36
-15 -35 -5 -255 -107 -261 -121 -2 -5 -10 -8 -18 -8 -8 0 -14 -4 -14 -10 0 -5
-6 -10 -13 -10 -7 0 -23 -9 -35 -20 -12 -12 -22 -18 -22 -15 0 6 -17 -8 -119
-90 -31 -25 -171 -165 -171 -171 0 -4 -22 -32 -45 -58 -20 -22 -83 -122 -118
-186 -67 -126 -142 -344 -163 -474 -3 -21 -8 -48 -10 -60 -26 -127 -25 -580 1
-706 3 -14 8 -45 11 -70 14 -109 68 -300 127 -440 89 -216 256 -442 427 -580
24 -19 48 -39 54 -45 24 -22 76 -55 85 -55 5 0 11 -4 13 -9 4 -11 119 -80 183
-110 167 -79 294 -124 495 -176 40 -11 271 -54 315 -60 28 -3 79 -10 115 -15
108 -16 533 -42 650 -40 70 1 114 -1 121 -6 5 -3 9 -2 9 3 0 4 57 7 127 5 71
-1 133 -2 138 -2 76 -2 185 24 185 44 0 5 3 7 6 3 9 -9 69 58 89 98 9 19 18
47 20 63 2 15 4 32 6 37 2 6 -3 35 -9 64 -11 48 -39 98 -77 137 -11 12 -98 58
-102 55 -2 0 -4 -1 -5 0 -2 0 -174 2 -383 4 -351 3 -421 5 -575 20 -30 3 -73
7 -95 9 -95 9 -171 19 -178 23 -4 3 -27 6 -50 8 -23 2 -73 11 -112 20 -38 9
-80 19 -92 21 -12 2 -34 9 -48 14 -14 5 -25 8 -25 5 0 -2 -20 4 -45 15 -25 11
-49 20 -53 20 -46 2 -251 99 -357 169 -111 73 -240 208 -312 326 -15 23 -83
163 -83 170 0 2 -5 16 -11 32 -6 15 -10 29 -10 30 0 2 -7 22 -15 45 -9 24 -18
58 -20 77 -3 19 -6 37 -9 41 -6 10 -26 135 -32 200 -7 82 -10 373 -4 385 3 6
6 21 6 35 2 40 16 126 31 183 3 12 6 28 6 35 1 6 4 12 8 12 3 0 7 10 7 22 1
13 6 32 12 43 5 11 25 56 45 99 20 44 59 110 87 148 54 73 181 195 227 219 15
8 29 17 32 21 13 17 194 99 280 126 191 61 350 85 575 85 108 1 235 -7 305
-18 8 -1 42 -5 75 -10 33 -4 69 -10 80 -12 26 -6 81 -2 93 7 1 2 5 3 10 5 58
16 105 59 140 127 45 90 36 177 -30 270 -21 30 -91 75 -130 84 -92 22 -115 26
-130 27 -10 1 -18 4 -18 8 0 4 -16 10 -36 14 -50 9 -215 81 -294 127 -92 55
-104 62 -110 68 -3 3 -22 18 -44 34 -49 37 -130 117 -181 181 -22 28 -42 52
-45 55 -7 7 -24 34 -70 115 -59 103 -119 267 -136 370 -3 17 -8 41 -10 55 -3
14 -7 39 -10 55 -5 37 -6 287 0 335 24 219 120 472 231 610 61 75 168 164 207
172 7 2 15 6 18 10 23 30 248 52 350 35 97 -17 237 -71 332 -129 54 -34 75
-39 141 -39 92 1 174 56 216 145 11 25 21 50 21 56 0 5 17 18 38 29 71 36 139
136 129 189 -2 12 0 25 5 28 4 3 6 9 4 13 -3 4 -8 23 -11 41 -3 19 -9 39 -14
45 -37 50 -154 405 -134 405 3 0 1 6 -5 13 -5 6 -18 66 -28 132 -19 125 -25
440 -11 540 16 112 40 219 61 275 8 19 14 37 14 40 1 13 18 52 54 128 72 153
194 301 329 399 68 50 206 125 274 148 28 9 57 20 65 23 8 3 18 6 23 7 4 2 8
3 10 5 1 1 9 3 17 5 8 2 24 6 35 9 85 22 149 36 191 41 27 4 56 8 64 10 69 18
435 25 585 12 136 -13 291 -38 348 -57 88 -29 215 -257 261 -465 33 -149 40
-223 39 -420 -1 -154 -5 -204 -17 -223 -4 -6 -3 -12 2 -12 6 0 7 -15 2 -37 -5
-21 -11 -60 -14 -88 -3 -27 -9 -68 -12 -90 -3 -22 -6 -46 -7 -52 0 -7 -3 -13
-6 -13 -3 0 -6 -12 -7 -27 -1 -27 -7 -65 -21 -128 -9 -38 -10 -43 -13 -52 -1
-5 -3 -12 -4 -18 -2 -12 -19 -97 -22 -107 -1 -5 -3 -9 -4 -10 -1 -2 -4 -12 -5
-23 -2 -11 -8 -33 -13 -50 -12 -42 -6 -123 14 -170 23 -56 93 -119 150 -135
65 -18 92 -19 148 -3 121 36 165 110 220 378 15 70 30 125 36 125 3 0 -4 -48
-17 -107 -12 -60 -25 -121 -28 -137 -3 -16 -14 -60 -25 -98 -10 -37 -16 -68
-13 -68 3 0 0 -7 -7 -15 -7 -9 -10 -18 -8 -21 3 -3 -2 -26 -11 -52 -25 -69
-26 -158 -3 -212 32 -74 113 -136 189 -146 18 -2 36 -5 40 -6 24 -7 101 20
198 68 61 30 117 56 125 57 8 2 20 5 25 8 13 8 61 19 102 25 18 2 36 5 40 6 4
1 26 -4 48 -11 233 -79 405 -348 462 -722 15 -95 7 -381 -12 -449 -2 -8 -6
-28 -9 -43 -24 -138 -109 -333 -204 -467 -42 -59 -176 -201 -229 -242 -173
-134 -430 -240 -663 -272 -111 -16 -139 -25 -187 -62 -32 -24 -84 -95 -92
-124 -11 -43 -6 -117 11 -164 35 -91 133 -161 227 -159 73 1 207 16 224 25 22
11 28 8 30 -21 1 -11 8 -21 17 -22 8 0 69 -2 135 -4 66 -2 136 -6 156 -9 20
-4 51 -8 70 -10 19 -2 50 -7 69 -11 19 -4 44 -8 55 -10 70 -13 217 -55 225
-64 3 -3 12 -7 20 -9 30 -6 220 -105 236 -123 10 -11 21 -19 26 -19 20 0 157
-135 196 -195 15 -22 32 -45 38 -52 38 -40 133 -289 139 -367 2 -23 5 -41 6
-41 6 0 20 -154 20 -230 1 -94 -9 -269 -16 -305 -3 -14 -8 -41 -11 -60 -3 -19
-9 -51 -14 -70 -5 -19 -11 -46 -14 -60 -2 -14 -11 -45 -20 -70 -9 -25 -18 -52
-20 -60 -10 -38 -73 -162 -119 -230 -60 -90 -178 -208 -273 -272 -77 -52 -222
-126 -299 -153 -27 -9 -59 -21 -70 -25 -11 -5 -63 -21 -115 -37 l-95 -28 -325
0 c-179 0 -331 -4 -339 -9 -8 -5 -88 -9 -178 -8 -159 1 -164 0 -215 -26 -62
-32 -91 -61 -118 -120 -18 -37 -21 -57 -19 -136 0 -35 37 -101 76 -137 68 -63
106 -71 333 -73 110 0 200 -5 200 -9 0 -5 5 -5 11 -2 16 11 69 12 69 3 0 -5 8
-5 17 1 10 5 26 5 40 0 14 -5 23 -5 23 1 0 5 12 5 30 0 17 -5 30 -5 30 0 0 5
13 5 29 0 16 -4 31 -6 33 -4 9 8 88 10 88 2 0 -5 5 -6 11 -2 7 4 55 8 108 10
189 5 383 20 511 39 68 9 128 18 155 21 17 2 41 6 55 9 14 3 37 8 53 10 111
16 380 94 485 141 28 12 52 20 52 16 0 -4 4 -2 8 3 4 6 42 27 84 47 223 108
459 305 576 483 15 22 29 42 32 45 27 24 162 299 174 355 4 17 47 159 53 175
4 8 5 18 5 22 -1 4 5 36 13 70 28 127 39 256 40 473 0 238 -8 310 -55 493 -16
62 -41 140 -55 175 -15 34 -27 67 -29 72 -10 44 -121 225 -190 310 -79 98
-259 265 -285 265 -6 0 -11 5 -11 10 0 6 -7 10 -15 10 -8 0 -15 4 -15 9 0 7
-205 125 -220 126 -3 1 -27 11 -55 24 -82 37 -276 99 -365 117 -13 3 -26 7
-29 9 -2 3 23 33 56 67 34 35 74 79 90 98 44 52 143 196 143 208 0 6 3 12 8
14 7 3 73 133 105 208 19 44 73 215 81 255 28 145 34 182 41 284 2 35 6 65 9
68 2 2 0 18 -4 34 -5 18 -5 29 1 29 6 0 7 5 3 11 -4 7 -8 46 -9 88 -3 72 -12
159 -20 191 -4 15 -14 68 -20 105 -20 129 -177 500 -235 555 -3 3 -19 25 -35
50 -63 95 -177 208 -280 279 -57 40 -195 114 -195 105 0 -4 -10 0 -22 8 -35
21 -96 38 -228 63 -82 15 -339 13 -401 -3 -39 -10 -39 -9 -24 58 3 14 7 39 10
55 7 51 16 88 22 98 4 6 1 7 -7 2 -9 -5 -11 -4 -6 3 8 14 14 41 21 102 3 25 8
59 10 76 22 136 21 532 -1 639 -3 11 -7 39 -10 61 -2 23 -7 50 -9 60 -3 16
-39 155 -48 189 -18 64 -124 297 -139 303 -4 2 -8 8 -8 13 0 9 -60 99 -84 126
-6 7 -15 18 -21 25 -45 59 -105 118 -211 208 -75 64 -337 207 -409 225 -5 1
-18 5 -27 8 -10 4 -26 10 -35 14 -20 7 -18 6 -93 28 -30 9 -64 18 -75 20 -11
2 -31 6 -45 9 -117 25 -169 34 -245 42 -22 2 -58 7 -80 10 -43 6 -541 15 -547
9z m1563 -2038 c-10 -9 -11 -8 -5 6 3 10 9 15 12 12 3 -3 0 -11 -7 -18z m-7
-76 c-4 -28 -10 -51 -14 -51 -3 0 -2 25 3 55 13 68 20 66 11 -4z m1961 -3806
c39 -41 92 -111 119 -156 47 -78 109 -235 120 -303 3 -17 11 -58 17 -91 6 -33
13 -134 14 -225 2 -150 -2 -216 -20 -335 -4 -22 -8 -51 -10 -65 -2 -14 -6 -36
-10 -50 -3 -14 -8 -36 -11 -49 -3 -13 -9 -32 -15 -43 -5 -10 -8 -18 -5 -18 15
0 -118 -290 -143 -310 -3 -3 -22 -26 -41 -52 -19 -26 -38 -48 -42 -48 -4 0 4
24 16 53 23 50 38 87 41 97 0 3 9 32 20 65 10 33 19 65 21 70 4 18 14 65 19
93 3 15 8 34 10 42 7 26 17 84 20 115 1 17 3 30 5 30 7 0 14 165 14 325 0 183
-7 291 -24 349 -4 16 -6 32 -3 35 3 2 1 11 -3 18 -5 7 -9 20 -11 28 -1 8 -5
30 -8 47 -3 18 -5 34 -5 35 1 2 -8 27 -19 56 -11 28 -18 52 -16 52 3 0 -1 10
-9 23 -8 12 -16 27 -17 32 -8 45 -86 200 -127 255 l-27 35 30 -19 c17 -10 62
-51 100 -91z"/>
<path d="M6418 9914 c-2 -1 -20 -5 -42 -8 -53 -9 -177 -51 -239 -83 -47 -24
-168 -96 -192 -115 -119 -95 -247 -215 -289 -272 -58 -78 -70 -224 -27 -321
28 -64 99 -131 152 -145 51 -14 124 -5 165 20 17 11 63 51 103 90 41 39 90 83
110 98 20 15 38 30 41 33 12 15 120 79 121 72 6 -31 2 -433 -3 -433 -4 0 -3
-11 2 -25 6 -16 6 -25 -1 -25 -6 0 -6 -7 1 -19 6 -13 7 -22 0 -26 -6 -3 -6
-15 0 -29 5 -13 6 -26 3 -30 -3 -3 -7 -133 -8 -288 -2 -156 -4 -318 -5 -360
l-3 -78 -297 298 c-164 164 -313 309 -331 323 -34 25 -99 53 -99 42 0 -3 -6 0
-13 6 -8 6 -16 8 -20 5 -3 -3 -23 -7 -44 -9 -21 -2 -55 -10 -75 -18 -42 -18
-102 -74 -112 -105 -4 -12 -11 -22 -15 -22 -4 0 -8 -6 -9 -12 -3 -31 -10 -94
-12 -103 -1 -5 -2 -12 0 -15 1 -3 4 -16 6 -30 3 -13 9 -29 14 -34 6 -6 10 -17
10 -27 0 -9 223 -239 495 -511 l495 -495 -4 -354 c-3 -195 -6 -442 -7 -549 -2
-181 -3 -198 -25 -241 -19 -38 -22 -58 -19 -118 2 -46 9 -81 21 -98 17 -27 20
-85 12 -286 -2 -37 1 -67 5 -67 5 0 5 -5 1 -11 -3 -6 -8 -133 -9 -283 -3 -234
-9 -721 -20 -1529 -1 -114 -4 -209 -6 -211 -2 -2 -40 -7 -84 -10 -44 -4 -91
-9 -105 -11 -14 -2 -52 -6 -85 -10 -33 -3 -67 -8 -75 -10 -8 -2 -37 -6 -64
-10 -27 -3 -52 -8 -56 -10 -4 -2 -29 -7 -56 -11 -27 -3 -58 -10 -70 -15 -12
-4 -24 -5 -27 -2 -3 3 -12 1 -19 -3 -7 -5 -17 -9 -23 -11 -5 -1 -21 -4 -35 -7
-14 -3 -56 -15 -95 -27 -38 -11 -74 -22 -80 -23 -5 -2 -19 -6 -30 -10 -11 -5
-45 -17 -75 -28 -237 -88 -300 -150 -306 -299 -1 -43 -5 -83 -9 -89 -3 -5 -2
-10 2 -10 5 0 9 -21 9 -48 1 -60 12 -226 18 -272 3 -19 7 -64 10 -100 7 -69
12 -120 21 -186 3 -22 8 -60 11 -85 5 -45 6 -52 24 -149 5 -30 12 -71 14 -90
4 -30 60 -305 72 -350 2 -8 8 -33 14 -55 6 -22 13 -51 16 -65 2 -14 9 -40 15
-58 6 -18 12 -41 14 -50 2 -9 4 -18 5 -19 2 -2 3 -6 4 -10 2 -5 9 -28 16 -53
7 -25 14 -47 14 -50 1 -3 9 -27 20 -55 10 -27 29 -81 43 -120 14 -38 31 -83
38 -100 7 -16 23 -55 36 -85 13 -30 40 -86 60 -125 20 -38 47 -90 60 -115 13
-25 26 -47 29 -50 11 -11 50 -70 50 -75 0 -14 126 -169 196 -239 67 -68 214
-184 214 -170 0 4 8 0 18 -8 41 -36 216 -106 287 -115 22 -3 47 -9 55 -13 17
-9 281 -5 320 4 14 3 39 9 55 11 66 12 154 40 238 76 289 123 519 336 718 664
66 109 178 336 179 362 1 4 9 26 20 48 11 22 19 45 20 51 0 6 8 29 17 50 9 22
17 41 18 44 1 3 5 21 9 40 5 19 12 40 15 45 6 8 37 119 56 200 3 11 16 70 30
130 26 111 30 132 39 195 3 19 8 46 11 60 9 40 14 72 20 125 3 28 7 61 10 75
15 92 32 292 41 485 3 55 5 105 5 110 1 6 1 33 0 60 0 28 0 57 0 65 2 35 -10
177 -17 195 -4 11 -22 41 -40 66 -27 36 -49 53 -106 78 -97 44 -376 136 -443
146 -11 2 -58 13 -105 24 -47 11 -98 23 -115 25 -16 3 -41 8 -55 11 -14 3 -43
8 -65 11 -22 2 -51 7 -65 9 -14 2 -43 6 -65 9 -22 3 -65 8 -95 12 -53 6 -107
11 -161 13 l-26 1 3 273 c1 149 5 502 9 782 7 510 11 854 16 1230 l2 200 481
482 c316 318 488 497 502 526 18 34 22 57 20 113 -3 71 -11 93 -58 154 -60 81
-209 112 -303 63 -24 -12 -165 -145 -332 -312 -160 -160 -293 -291 -295 -291
-3 0 -4 101 -2 224 1 154 6 231 14 247 18 33 21 134 5 179 -14 41 -14 5 0
1105 4 286 8 568 8 626 1 96 3 106 19 101 10 -2 18 -8 18 -13 0 -5 5 -9 11 -9
10 0 72 -45 105 -75 130 -120 172 -146 241 -150 69 -4 121 17 171 70 54 57 76
118 76 210 0 44 -2 89 -5 100 -8 32 -46 98 -72 125 -44 47 -157 143 -210 179
-28 20 -54 39 -57 42 -9 11 -164 104 -200 121 -164 76 -284 105 -429 105 -67
0 -122 -1 -123 -3z m-173 -7154 c0 -138 -3 -250 -7 -250 -12 0 19 -107 41
-143 44 -72 140 -125 219 -123 18 1 32 -2 32 -5 0 -11 103 24 141 49 20 12 49
38 64 57 49 65 54 99 58 390 l3 270 49 -1 c57 -2 183 -13 205 -19 8 -2 35 -7
60 -10 80 -10 293 -54 365 -76 84 -25 83 -24 120 -33 78 -19 84 -25 82 -72 -1
-24 2 -44 6 -44 5 0 5 -5 1 -12 -4 -6 -9 -41 -10 -77 -2 -64 -9 -158 -19 -271
-5 -48 -10 -89 -31 -240 -4 -31 -9 -59 -18 -110 -1 -8 -7 -37 -11 -65 -10 -57
-12 -63 -15 -70 -1 -3 -3 -13 -4 -22 -2 -16 -23 -112 -31 -138 -1 -5 -3 -12
-4 -15 -53 -217 -167 -515 -256 -663 -22 -38 -44 -77 -50 -88 -5 -10 -13 -19
-17 -19 -5 0 -8 -6 -8 -12 0 -7 -10 -25 -23 -40 -12 -14 -37 -44 -55 -66 -39
-48 -130 -137 -163 -159 -13 -9 -26 -20 -29 -23 -16 -19 -141 -86 -211 -111
-106 -39 -136 -44 -249 -43 -98 0 -170 19 -248 64 -63 37 -179 145 -219 203
-15 23 -31 44 -34 47 -35 27 -204 367 -244 490 -10 30 -20 60 -24 65 -6 12
-10 23 -18 65 -3 16 -9 30 -12 30 -4 0 -8 6 -8 13 0 6 -14 62 -30 122 -30 107
-40 148 -49 190 -2 11 -6 29 -9 40 -13 54 -29 129 -40 190 -4 22 -9 49 -11 60
-2 11 -6 36 -8 55 -3 19 -8 47 -11 61 -2 14 -7 45 -9 70 -3 24 -5 44 -6 44 -1
0 -3 18 -6 40 -2 22 -9 76 -15 120 -6 44 -13 107 -15 140 -15 247 -16 245 1
245 8 0 23 4 33 10 9 5 37 15 62 21 25 7 50 14 55 15 38 12 290 64 335 70 30
3 57 8 60 9 3 2 39 6 80 10 41 4 76 8 77 9 1 0 19 2 40 3 l38 2 0 -249z"/>
</g>
</svg>
