<svg width="48" height="48" viewBox="0 0 48 48" fill="none" xmlns="http://www.w3.org/2000/svg">
<g clip-path="url(#clip0)">
<path d="M16.9645 44.5845C16.512 44.7353 16.0595 44.7353 15.5316 44.7353C14.9282 44.6599 14.4003 44.4337 13.7969 44.5091C13.4198 44.5845 13.3444 45.037 13.5706 45.2633C14.4003 46.0929 16.2858 45.8666 17.1908 45.2633C17.6433 45.037 17.4171 44.4337 16.9645 44.5845Z" fill="white"/>
<path d="M11.0818 43.0761C10.5538 43.3024 10.1013 43.3778 9.57336 43.2269C9.12084 43.0761 8.81916 42.6236 8.51748 42.3219C8.2158 42.0202 7.76328 42.2466 7.76328 42.6236C7.68786 43.4532 8.44206 44.0565 9.19626 44.2074C10.0259 44.4336 10.8555 44.2074 11.5343 43.6796C11.7605 43.4533 11.4589 42.9253 11.0818 43.0761Z" fill="white"/>
<path d="M6.17945 39.9839C5.19899 39.9085 4.97273 38.928 4.59563 38.1738C4.36937 37.7213 3.84143 38.0985 3.91685 38.4755C4.06769 39.6822 4.89731 40.7381 6.25487 40.6627C6.63197 40.5872 6.63197 39.9839 6.17945 39.9839Z" fill="white"/>
<path d="M2.86106 34.252C2.33312 33.6486 1.95602 32.8943 1.80518 32.0648C1.65434 31.3859 1.8806 30.7071 1.80518 30.0284C1.72976 29.7268 1.35266 29.7268 1.27724 29.953C0.296777 31.386 1.42808 33.5732 2.48396 34.5536C2.71022 34.8553 3.08731 34.4782 2.86106 34.252Z" fill="white"/>
<path d="M1.88049 22.4864C1.95591 22.1094 1.42797 21.8077 1.27713 22.1848C0.673769 23.4669 0.900029 25.0507 1.35255 26.3327C1.42797 26.559 1.80507 26.4837 1.72965 26.2574C1.42797 24.8999 1.65423 23.6932 1.88049 22.4864Z" fill="white"/>
<path d="M3.99237 13.2097C3.08733 14.1902 2.33313 15.5477 2.33313 16.9053C2.33313 17.2824 2.93649 17.2824 2.93649 16.9053C3.01191 15.6232 3.91695 14.6427 4.44489 13.5868C4.67115 13.2853 4.29405 12.9082 3.99237 13.2097Z" fill="white"/>
<path d="M10.026 6.87464C9.4226 7.02548 8.89466 7.40258 8.2913 7.77968C7.76336 8.08136 7.23542 8.45846 6.7829 8.91098C6.55664 9.13724 6.93374 9.51433 7.16 9.28807C8.06504 8.53388 9.49802 8.30762 10.3276 7.32716C10.4785 7.1762 10.3276 6.7991 10.026 6.87464Z" fill="white"/>
<path d="M17.4171 2.651C16.8137 2.80184 16.2858 3.17894 15.7578 3.4052C15.1545 3.70688 14.5511 3.93314 13.8723 4.23482C13.5706 4.38566 13.7215 4.83818 14.0232 4.68734C15.1545 4.38566 16.8891 4.08398 17.6433 3.10352C17.8696 2.87726 17.7188 2.57546 17.4171 2.651Z" fill="white"/>
<path d="M34.5375 1.67065C34.4621 1.67065 34.4621 1.67065 34.3866 1.67065C34.3866 1.67065 34.3866 1.67065 34.3112 1.67065C34.2358 1.67065 34.2358 1.67065 34.1603 1.67065C34.085 1.67065 34.0094 1.67065 33.934 1.67065C33.7832 1.67065 33.6324 1.67065 33.4815 1.67065C33.2552 1.67065 32.9535 1.67065 32.7273 1.74607C32.3502 1.74607 32.3502 2.34943 32.7273 2.34943C32.9535 2.34943 33.2552 2.34943 33.4815 2.42485H33.934C34.0094 2.42485 34.085 2.42485 34.1603 2.42485C34.2357 2.42485 34.2357 2.42485 34.3112 2.42485C34.3866 2.42485 34.4621 2.42485 34.5375 2.42485C34.7637 2.42485 34.8392 2.19859 34.8392 2.04775C34.8393 1.89691 34.7637 1.74595 34.5375 1.67065Z" fill="white"/>
<path d="M42.004 5.44154C41.099 4.31025 39.138 4.23483 37.8559 3.93315C37.7051 3.85773 37.5542 4.15941 37.7051 4.23483C38.3838 4.53651 38.9871 4.83819 39.666 5.06445C40.2693 5.36612 40.948 5.81864 41.5515 5.96948C41.8533 6.04478 42.2303 5.74322 42.004 5.44154Z" fill="white"/>
<path d="M43.8142 8.91096C43.5879 8.60928 43.1353 8.98638 43.2863 9.28806C43.5879 9.816 43.9651 10.2685 44.2668 10.7965C44.6439 11.3244 44.8701 11.9278 45.1718 12.4557C45.3226 12.7574 45.926 12.682 45.8506 12.3049C45.775 10.9473 44.5683 9.89142 43.8142 8.91096Z" fill="white"/>
<path d="M46.7554 19.7713C46.5292 19.2434 46.3783 18.64 46.3029 18.0367C46.2276 17.5842 45.5487 17.5087 45.5487 18.0367C45.5487 18.64 45.6241 19.2434 45.775 19.8468C45.9259 20.3747 46.0766 21.0535 46.4539 21.4306C46.6801 21.5814 46.9817 21.5814 47.0572 21.2797C47.208 20.7518 46.9064 20.2993 46.7554 19.7713Z" fill="white"/>
<path d="M46.6801 26.2575C46.6801 25.8048 46.0012 25.8048 46.0012 26.2575C45.9259 27.615 45.6241 29.2741 45.9259 30.6318C46.0012 31.0089 46.6801 31.0089 46.7554 30.6318C47.0571 29.2742 46.7554 27.615 46.6801 26.2575Z" fill="white"/>
<path d="M44.7945 34.3273C44.5682 34.9307 44.2667 35.4587 43.965 35.9866C43.6633 36.5145 43.2108 36.8917 43.1354 37.495C43.1354 37.7966 43.5126 37.9475 43.7387 37.8722C44.2667 37.5705 44.5682 36.8163 44.7945 36.2882C45.0962 35.6849 45.2471 35.0815 45.4734 34.4782C45.6241 34.1011 44.9453 33.9502 44.7945 34.3273Z" fill="white"/>
<path d="M40.9481 40.3609C40.4956 40.7381 40.0431 41.1905 39.5152 41.5676C38.9872 41.9448 38.3084 42.2464 38.0822 42.8497C38.0068 43.076 38.2331 43.3777 38.4594 43.3777C39.0628 43.3777 39.5907 42.7743 40.0432 42.3972C40.5712 41.9447 41.0237 41.4168 41.4762 40.9642C41.8533 40.5871 41.4006 40.0592 40.9481 40.3609Z" fill="white"/>
<path d="M35.4424 44.6598C34.7637 44.5846 34.0849 44.6598 33.4062 44.7353C32.7273 44.8107 31.8223 44.8862 31.219 45.414C30.9173 45.7157 31.1436 46.1682 31.5206 46.2437C32.1239 46.3191 32.8027 45.942 33.3307 45.7911C34.0094 45.5649 34.7637 45.4139 35.4424 45.2632C35.8197 45.1878 35.6687 44.7353 35.4424 44.6598Z" fill="white"/>
<path d="M31.2191 47.2996C29.7861 46.7716 28.4284 46.0928 27.1463 45.3386C27.5989 45.1124 28.0515 44.8107 28.5793 44.5844C29.4089 44.2072 30.3139 43.9811 31.0681 43.4531C31.5961 43.1514 31.3698 42.3217 30.7664 42.3217C29.8614 42.2464 28.9564 42.7742 28.2022 43.1513C27.2217 43.6038 26.3167 44.1318 25.3362 44.6596C24.8837 44.886 24.8837 45.6401 25.3362 45.8664C27.2217 46.6959 29.1072 47.752 31.1435 47.9782C31.5961 48.1292 31.5961 47.4504 31.2191 47.2996Z" fill="white"/>
<path d="M24.2802 0.991698C22.0931 0.237499 19.755 -0.0641813 17.4924 0.0112387C16.8891 0.0112387 16.8891 0.916278 17.4924 0.991698C19.3779 1.14254 21.2634 1.44422 22.9981 2.04758C22.621 2.72636 22.2439 3.40514 21.8668 4.08392C21.5651 4.68728 20.9618 5.44147 21.188 6.12025C21.2634 6.42193 21.5651 6.64819 21.8668 6.49735C22.621 6.27109 22.8472 5.44147 23.1489 4.83812C23.6014 3.85766 24.1294 2.95262 24.6575 2.04758C25.0344 1.6706 24.7327 1.14254 24.2802 0.991698Z" fill="white"/>
</g>
<circle cx="24" cy="24" r="15" fill="#2CB027"/>
<defs>
<clipPath id="clip0">
<rect width="48" height="48" fill="white"/>
</clipPath>
</defs>
</svg>
