<svg width="35" height="35" viewBox="0 0 35 35" fill="none" xmlns="http://www.w3.org/2000/svg">
<circle cx="17.5" cy="17.5" r="17.5" fill="#2CB027"/>
<path d="M21.8999 7H13.1002C9.73652 7 7 9.73652 7 13.1002V21.8998C7 25.2635 9.73652 28 13.1002 28H21.8998C22.8703 28 23.7985 27.7786 24.6585 27.3417C25.478 26.9256 26.2055 26.3177 26.7624 25.5836C27.0361 25.2227 26.9655 24.7082 26.6046 24.4343C26.2438 24.1606 25.7292 24.2311 25.4553 24.5921C24.6032 25.7152 23.3073 26.3594 21.8999 26.3594H13.1002C10.6412 26.3594 8.64062 24.3588 8.64062 21.8999V13.1002C8.64062 10.6412 10.6412 8.64062 13.1002 8.64062H21.8998C24.3588 8.64062 26.3594 10.6412 26.3594 13.1002V21.0684C26.3594 21.5214 26.7266 21.8887 27.1797 21.8887C27.6327 21.8887 28 21.5214 28 21.0684V13.1002C28 9.73652 25.2635 7 21.8999 7Z" fill="white"/>
<path d="M17.5 11.8398C14.379 11.8398 11.8398 14.379 11.8398 17.5C11.8398 20.621 14.379 23.1602 17.5 23.1602C20.621 23.1602 23.1602 20.621 23.1602 17.5C23.1602 14.379 20.621 11.8398 17.5 11.8398ZM17.5 21.5195C15.2836 21.5195 13.4805 19.7164 13.4805 17.5C13.4805 15.2836 15.2836 13.4805 17.5 13.4805C19.7164 13.4805 21.5195 15.2836 21.5195 17.5C21.5195 19.7164 19.7164 21.5195 17.5 21.5195Z" fill="white"/>
<path d="M23.2422 12.5781C23.6952 12.5781 24.0625 12.2109 24.0625 11.7578C24.0625 11.3048 23.6952 10.9375 23.2422 10.9375C22.7891 10.9375 22.4219 11.3048 22.4219 11.7578C22.4219 12.2109 22.7891 12.5781 23.2422 12.5781Z" fill="white"/>
</svg>
