<svg width="18" height="18" viewBox="0 0 18 18" fill="none" xmlns="http://www.w3.org/2000/svg">
<path d="M17.9982 14.5038C17.9731 13.8076 17.6831 13.1578 17.1816 12.6742C16.1996 11.7274 15.3769 11.1807 14.5924 10.9541C13.5116 10.6417 12.5103 10.9257 11.6168 11.7984C11.6154 11.7997 11.6141 11.801 11.6128 11.8023L10.6621 12.7459C10.068 12.411 8.9128 11.6756 7.66468 10.4275L7.57215 10.3351C6.32382 9.08676 5.58853 7.93131 5.25395 7.33787L6.19754 6.3872C6.19888 6.38586 6.20021 6.38453 6.20155 6.38316C7.07416 5.48969 7.35823 4.48851 7.04586 3.40748C6.81914 2.62304 6.27257 1.80031 5.32567 0.818353C4.84213 0.316917 4.19241 0.026877 3.49614 0.00177527C2.79945 -0.0233616 2.13092 0.219147 1.61243 0.684548L1.59225 0.702689C1.5829 0.711091 1.57376 0.719775 1.56483 0.728669C0.53268 1.76083 -0.00837465 3.20579 9.80008e-05 4.9074C0.0145472 7.79803 1.60322 11.1037 4.24975 13.7502C4.74879 14.2493 5.31597 14.7431 5.93549 15.2182C6.24363 15.4544 6.68498 15.3962 6.92127 15.088C7.15759 14.7798 7.0993 14.3385 6.79112 14.1022C6.22036 13.6645 5.69987 13.2116 5.24411 12.7559C2.85362 10.3654 1.41893 7.42881 1.40631 4.9004C1.39981 3.58991 1.79401 2.49609 2.54646 1.7358L2.55184 1.73094C3.06291 1.27219 3.83666 1.3001 4.31345 1.79451C6.1338 3.68234 6.002 4.57359 5.19763 5.39843L3.89425 6.71159C3.68985 6.91754 3.63293 7.2279 3.75095 7.49298C3.78403 7.5673 4.58451 9.33612 6.57804 11.3297L6.67061 11.4221C8.66389 13.4154 10.4327 14.2159 10.5071 14.249C10.7721 14.367 11.0825 14.3101 11.2884 14.1057L12.6016 12.8023C13.4265 11.9979 14.3178 11.8661 16.2055 13.6865C16.6999 14.1632 16.7278 14.937 16.2692 15.448L16.2642 15.4535C15.5101 16.1999 14.4279 16.5937 13.1317 16.5937C13.121 16.5937 13.1103 16.5937 13.0996 16.5937C12.0635 16.5885 10.8638 16.3045 9.63009 15.7723C9.27361 15.6185 8.85978 15.7829 8.70601 16.1395C8.5522 16.4961 8.71656 16.9098 9.07315 17.0636C10.4992 17.6787 11.8515 17.9937 13.0926 17.9999C13.1058 18 13.1189 18 13.1321 18C14.8165 18 16.2472 17.4593 17.2713 16.4352C17.2802 16.4263 17.2889 16.4172 17.2973 16.4078L17.3155 16.3875C17.7809 15.869 18.0234 15.2001 17.9982 14.5038Z" fill="#2CB027"/>
</svg>
