<svg width="18" height="18" viewBox="0 0 18 18" fill="none" xmlns="http://www.w3.org/2000/svg">
<path d="M17.2969 10.248C17.6852 10.248 18 9.93326 18 9.54492V4.93945C18 3.38864 16.7383 2.12695 15.1875 2.12695H2.8125C1.26169 2.12695 0 3.38864 0 4.93945V13.0605C0 14.6114 1.26169 15.873 2.8125 15.873H15.1875C16.7383 15.873 18 14.6114 18 13.0605C18 12.6722 17.6852 12.3574 17.2969 12.3574C16.9085 12.3574 16.5938 12.6722 16.5938 13.0605C16.5938 13.836 15.9629 14.4668 15.1875 14.4668H2.8125C2.03709 14.4668 1.40625 13.836 1.40625 13.0605V5.08845L7.51482 8.8869C7.97288 9.1717 8.48644 9.31412 9 9.31412C9.51356 9.31412 10.0271 9.1717 10.4852 8.8869L16.5938 5.08845V9.54492C16.5938 9.93326 16.9085 10.248 17.2969 10.248ZM9.74257 7.69268C9.28456 7.97748 8.71545 7.97752 8.25743 7.69268L1.99297 3.7973C2.22388 3.63115 2.50696 3.5332 2.8125 3.5332H15.1875C15.493 3.5332 15.7761 3.63118 16.007 3.79733L9.74257 7.69268Z" fill="#2CB027"/>
</svg>
