<svg width="18" height="18" viewBox="0 0 18 18" fill="none" xmlns="http://www.w3.org/2000/svg">
<path d="M15.364 2.63602C13.6641 0.936176 11.404 0 9 0C6.59602 0 4.33593 0.936176 2.63602 2.63602C0.936176 4.33593 0 6.59602 0 9C0 11.404 0.936176 13.6641 2.63602 15.364C4.33593 17.0638 6.59602 18 9 18C10.6458 18 12.2561 17.5515 13.6568 16.703C13.989 16.5018 14.0952 16.0694 13.894 15.7373C13.6928 15.4051 13.2604 15.299 12.9283 15.5002C11.7472 16.2156 10.3888 16.5938 9 16.5938C4.81279 16.5938 1.40625 13.1872 1.40625 9C1.40625 4.81279 4.81279 1.40625 9 1.40625C13.1872 1.40625 16.5938 4.81279 16.5938 9C16.5938 10.4973 16.1485 11.9547 15.3061 13.2147C15.0903 13.5375 15.177 13.9742 15.4998 14.19C15.8227 14.4058 16.2593 14.3191 16.4751 13.9963C17.4727 12.5042 18 10.7765 18 9C18 6.59602 17.0638 4.33593 15.364 2.63602Z" fill="#2CB027"/>
<path d="M9 2.67188C8.61167 2.67188 8.29688 2.98666 8.29688 3.375V8.70877L5.71859 11.2871C5.44398 11.5616 5.44398 12.0068 5.71859 12.2814C5.85587 12.4187 6.0358 12.4874 6.21577 12.4874C6.39573 12.4874 6.57566 12.4187 6.71295 12.2814L9.49718 9.49718C9.62905 9.36534 9.70313 9.18647 9.70313 9V3.375C9.70313 2.98666 9.38834 2.67188 9 2.67188Z" fill="#2E2B29"/>
</svg>
