<svg width="220" height="34" viewBox="0 0 220 34" fill="none" xmlns="http://www.w3.org/2000/svg">
<path d="M62.349 11.364H54.3586C54.2397 10.0541 53.8117 9.03 53.0745 8.29171C52.361 7.55341 51.386 7.18427 50.1494 7.18427C48.6274 7.18427 47.4503 7.79157 46.618 9.00618C45.7856 10.197 45.3695 11.9832 45.3695 14.3648C45.3695 16.7702 45.7856 18.5802 46.618 19.7948C47.4741 20.9856 48.6512 21.581 50.1494 21.581C51.386 21.581 52.3729 21.188 53.1101 20.4021C53.8711 19.6162 54.3111 18.5206 54.43 17.1155H62.456C62.1944 20.5688 60.9697 23.2838 58.7819 25.2605C56.6178 27.2373 53.776 28.2256 50.2564 28.2256C46.2137 28.2256 43.0627 26.9991 40.8035 24.5461C38.5681 22.0692 37.4504 18.6754 37.4504 14.3648C37.4504 10.0779 38.58 6.69604 40.8392 4.21919C43.1222 1.74233 46.2612 0.503906 50.2564 0.503906C53.7284 0.503906 56.5465 1.46845 58.7105 3.39754C60.8746 5.32663 62.0874 7.9821 62.349 11.364Z" fill="white"/>
<path d="M74.4862 0.896868H82.4765L92.2148 27.7612H84.0104L82.6906 23.1886H73.9868L72.6313 27.7612H64.3912L74.4862 0.896868ZM78.4457 8.25598L75.7703 17.1869H80.9783L78.4457 8.25598Z" fill="white"/>
<path d="M99.3552 0.968315H120.33V21.2952H123.683V33.0841H116.905L116.727 27.7612H101.353L101.174 33.0841H94.3612V21.2952H96.5015C98.404 19.7472 99.3552 17.1393 99.3552 13.4717V0.968315ZM112.696 7.47006H106.703V13.8289C106.703 16.9488 106.109 19.4375 104.92 21.2952H112.696V7.47006Z" fill="white"/>
<path d="M135.936 0.896868H143.926L153.664 27.7612H145.46L144.14 23.1886H135.436L134.081 27.7612H125.841L135.936 0.896868ZM139.895 8.25598L137.22 17.1869H142.428L139.895 8.25598Z" fill="white"/>
<path d="M9.56601 6.22322C9.56601 6.56151 9.48685 6.91038 9.32854 7.26981C9.17023 7.62925 8.95914 7.91997 8.69529 8.14197C9.58184 8.59655 10.0251 9.35242 10.0251 10.4096C10.0146 11.4245 9.70849 12.2649 9.1069 12.9309C8.50532 13.5864 7.66099 13.9141 6.57391 13.9141H1.38127V2.81387H6.1148C7.07523 2.81387 7.8879 3.14688 8.55281 3.81289C9.22827 4.46833 9.56601 5.27177 9.56601 6.22322ZM6.3681 9.50571H4.12007V11.3927H6.38393C6.74277 11.3927 6.9908 11.2395 7.128 10.9329C7.27576 10.6157 7.27576 10.2986 7.128 9.98143C6.98024 9.66428 6.72694 9.50571 6.3681 9.50571ZM5.89317 5.35106H4.12007V7.14295H5.909C6.26784 7.14295 6.51586 6.99495 6.65307 6.69894C6.80082 6.39237 6.80082 6.09107 6.65307 5.79507C6.50531 5.49906 6.25201 5.35106 5.89317 5.35106Z" fill="white"/>
<path d="M12.0602 10.8377C11.733 10.0977 11.5694 9.27313 11.5694 8.36397C11.5694 7.45481 11.733 6.63023 12.0602 5.89021C12.3873 5.1502 12.8201 4.5529 13.3583 4.09832C13.9071 3.64374 14.514 3.29488 15.1789 3.05173C15.8438 2.80859 16.5351 2.68701 17.2528 2.68701C18.5193 2.68701 19.6539 3.04645 20.6565 3.76532C21.6592 4.47362 22.2607 5.52021 22.4613 6.90509H19.675C19.295 5.81621 18.4876 5.27177 17.2528 5.27177C16.4296 5.27177 15.7647 5.55721 15.2581 6.12808C14.7515 6.69894 14.4982 7.44424 14.4982 8.36397C14.4982 9.2097 14.7515 9.93386 15.2581 10.5364C15.7752 11.1285 16.4401 11.4297 17.2528 11.4403C17.8755 11.4403 18.4032 11.287 18.8359 10.9805C19.2792 10.6739 19.5747 10.2299 19.7225 9.64843H22.5088C22.3821 10.6422 22.0391 11.4826 21.4797 12.1698C20.9309 12.8463 20.2977 13.3274 19.58 13.6128C18.8623 13.8877 18.0866 14.0251 17.2528 14.0251C16.5351 14.0251 15.8438 13.9088 15.1789 13.6762C14.514 13.4331 13.9071 13.0842 13.3583 12.6296C12.8201 12.175 12.3873 11.5777 12.0602 10.8377Z" fill="white"/>
<path d="M31.598 2.81387V5.35106H27.4977V6.92095H31.2655V9.44228H27.4977V11.3927H31.7405V13.9141H24.6797V2.81387H31.598Z" fill="white"/>
<path d="M2.05014 27.8171V28.8855H0V25.6387H0.983514L4.30807 17.9518H5.37469L8.81007 25.6387H9.82129V28.8855H7.785V27.8171H2.05014ZM4.83445 22.1005L3.49078 25.6109H6.23354L4.83445 22.1005Z" fill="white"/>
<path d="M16.289 22.1005L13.8233 27.7893H11.3991V27.4286L15.7626 17.9518H16.8293L21.2066 27.4286V27.7893H18.7824L16.289 22.1005Z" fill="white"/>
<path d="M22.9265 27.4286L24.8243 24.3483C24.4272 24.08 24.1086 23.7331 23.8685 23.3076C23.6284 22.8821 23.476 22.4427 23.4114 21.9895C23.356 21.527 23.3883 21.0645 23.5083 20.602C23.6284 20.1302 23.8223 19.7093 24.0901 19.3393C24.3672 18.9693 24.7458 18.6687 25.226 18.4374C25.7155 18.1969 26.2649 18.0767 26.8744 18.0767H31.1271V27.7893H28.6475V24.931H27.3593L25.697 27.7893H22.9265V27.4286ZM26.8744 22.6971H28.6475V20.2967C28.5183 20.2967 28.3336 20.2967 28.0934 20.2967C27.8533 20.2967 27.6317 20.2967 27.4285 20.2967C27.2346 20.2967 27.0499 20.2967 26.8744 20.2967C26.6066 20.2967 26.3804 20.38 26.1957 20.5465C26.0202 20.713 25.914 20.9165 25.8771 21.157C25.8401 21.3882 25.8448 21.6241 25.8909 21.8646C25.9371 22.0959 26.0479 22.2947 26.2234 22.4612C26.3988 22.6185 26.6159 22.6971 26.8744 22.6971Z" fill="white"/>
<path d="M158.534 3.96336C158.534 1.77446 160.31 0 162.5 0H216.035C218.225 0 220 1.77446 220 3.96336V25.7618C220 27.9507 218.225 29.7252 216.035 29.7252H162.5C160.31 29.7252 158.534 27.9507 158.534 25.7618V3.96336Z" fill="#1BA529"/>
<path d="M165.588 24.6716C165.588 24.2823 165.73 23.9601 166.014 23.7048C166.297 23.4496 166.636 23.322 167.03 23.322C167.417 23.322 167.752 23.4496 168.036 23.7048C168.32 23.9537 168.462 24.2759 168.462 24.6716C168.462 25.0417 168.326 25.3607 168.056 25.6287C167.785 25.8904 167.436 26.0212 167.01 26.0212C166.617 26.0212 166.281 25.8936 166.004 25.6383C165.726 25.3767 165.588 25.0544 165.588 24.6716Z" fill="white"/>
<path d="M178.749 25.332C177.962 25.7978 176.952 26.0307 175.72 26.0307C174.159 26.0307 172.894 25.5426 171.927 24.5663C170.959 23.59 170.475 22.3138 170.475 20.7376C170.475 18.9701 170.994 17.563 172.033 16.5165C173.072 15.47 174.456 14.9468 176.185 14.9468C177.249 14.9468 178.11 15.1159 178.768 15.4541V17.5598C178.007 17.0174 177.185 16.7462 176.301 16.7462C175.256 16.7462 174.407 17.094 173.756 17.7896C173.11 18.4787 172.788 19.4072 172.788 20.5749C172.788 21.7171 173.094 22.6137 173.707 23.2645C174.327 23.909 175.156 24.2313 176.194 24.2313C177.097 24.2313 177.949 23.9441 178.749 23.3698V25.332Z" fill="white"/>
<path d="M180.501 20.5845C180.501 18.8424 181.001 17.4673 182.001 16.4591C183.007 15.4509 184.375 14.9468 186.104 14.9468C187.736 14.9468 189.027 15.4349 189.975 16.4112C190.923 17.3875 191.398 18.7212 191.398 20.4122C191.398 22.1159 190.898 23.4783 189.898 24.4993C188.898 25.5203 187.562 26.0307 185.891 26.0307C184.252 26.0307 182.943 25.5362 181.962 24.5471C180.988 23.5581 180.501 22.2372 180.501 20.5845ZM182.814 20.5366C182.814 21.698 183.098 22.6041 183.665 23.255C184.239 23.9058 185.017 24.2313 185.998 24.2313C188.056 24.2313 189.085 22.9774 189.085 20.4696C189.085 19.2572 188.82 18.3351 188.291 17.7034C187.762 17.0653 186.998 16.7462 185.998 16.7462C184.998 16.7462 184.217 17.0844 183.656 17.7608C183.094 18.4372 182.814 19.3625 182.814 20.5366Z" fill="white"/>
<path d="M209.756 25.7819H207.482V19.7135C207.482 18.667 207.311 17.9108 206.969 17.445C206.627 16.9792 206.082 16.7462 205.333 16.7462C204.688 16.7462 204.133 17.0398 203.669 17.6268C203.204 18.2139 202.972 18.9318 202.972 19.7805V25.7819H200.707V19.5603C200.707 17.6843 199.981 16.7462 198.53 16.7462C197.859 16.7462 197.301 17.0302 196.856 17.5981C196.417 18.166 196.198 18.8999 196.198 19.7996V25.7819H193.923V15.1956H196.198V16.8611H196.246C197.014 15.5849 198.136 14.9468 199.614 14.9468C201.117 14.9468 202.133 15.6519 202.662 17.0621C203.462 15.6519 204.656 14.9468 206.243 14.9468C208.585 14.9468 209.756 16.3793 209.756 19.2444V25.7819Z" fill="white"/>
<path fill-rule="evenodd" clip-rule="evenodd" d="M176.985 12.5151L176.985 3.39688L170.637 3.39688L170.551 3.42372C169.676 3.69572 167.733 4.90657 165.979 7.63443L165.761 7.97358L165.996 8.30165C166.48 8.9791 167.277 9.99499 168.106 10.8482C168.52 11.2738 168.955 11.6737 169.374 11.9715C169.768 12.2516 170.247 12.5151 170.727 12.5151L176.985 12.5151ZM175.796 11.3258L170.727 11.3258C170.641 11.3258 170.424 11.2589 170.063 11.0022C169.727 10.7632 169.348 10.4197 168.959 10.0194C168.306 9.34744 167.665 8.55678 167.204 7.93925C168.707 5.73685 170.24 4.8065 170.826 4.58621L175.796 4.58622L175.796 11.3258Z" fill="white"/>
<path fill-rule="evenodd" clip-rule="evenodd" d="M204.142 7.26185L172.426 7.26185C172.043 7.26185 171.732 7.57247 171.732 7.95563C171.732 8.3388 172.043 8.64941 172.426 8.64941L204.142 8.64941L204.142 7.26185Z" fill="white"/>
<path fill-rule="evenodd" clip-rule="evenodd" d="M204.179 5.5422C204.065 6.08991 203.908 6.80591 203.579 7.76324L203.513 7.95611L203.579 8.14897C203.908 9.1063 204.065 9.8223 204.179 10.37C204.186 10.4034 204.193 10.4366 204.2 10.4695C204.248 10.7013 204.294 10.9192 204.344 11.1063C204.401 11.3206 204.476 11.5428 204.601 11.7415C204.893 12.205 205.343 12.3754 205.878 12.4479C206.375 12.5153 207.08 12.5153 208.047 12.5152L208.701 12.5152V3.39697H208.106C208.087 3.39697 208.067 3.39697 208.047 3.39697C207.08 3.39695 206.375 3.39693 205.878 3.46432C205.343 3.53683 204.893 3.7072 204.601 4.17074C204.476 4.36945 204.401 4.59157 204.344 4.8059C204.294 4.99304 204.248 5.21095 204.2 5.44273C204.193 5.47562 204.186 5.5088 204.179 5.5422ZM207.512 4.58696C206.817 4.5892 206.36 4.59915 206.038 4.64286C205.676 4.69196 205.632 4.76481 205.611 4.79913C205.61 4.80073 205.609 4.80224 205.608 4.80367C205.577 4.85273 205.539 4.94033 205.493 5.11316C205.452 5.26588 205.414 5.44751 205.364 5.68582C205.358 5.71818 205.351 5.75158 205.343 5.7861C205.232 6.31725 205.077 7.02667 204.769 7.95611C205.077 8.88554 205.232 9.59497 205.343 10.1261C205.351 10.1606 205.358 10.194 205.364 10.2264C205.414 10.4647 205.452 10.6463 205.493 10.799C205.539 10.9719 205.577 11.0595 205.608 11.1085C205.609 11.11 205.61 11.1115 205.611 11.1131C205.632 11.1474 205.676 11.2203 206.038 11.2694C206.36 11.3131 206.817 11.323 207.512 11.3253V4.58696Z" fill="white"/>
</svg>
