<svg width="35" height="35" viewBox="0 0 35 35" fill="none" xmlns="http://www.w3.org/2000/svg">
<circle cx="17.5" cy="17.5" r="17.5" fill="#2CB027"/>
<g clip-path="url(#clip0)">
<path d="M16.651 25.6875C20.2677 25.6875 18.9781 23.5811 19.2573 22.9754C19.2531 22.5231 19.249 22.088 19.2656 21.8235C19.4948 21.8829 20.0354 22.135 21.1521 23.1335C22.876 24.734 23.3167 25.6875 24.7094 25.6875H27.2729C28.0854 25.6875 28.5083 25.378 28.7198 25.1182C28.924 24.8672 29.124 24.4263 28.9052 23.7402C28.3333 22.088 24.9979 19.235 24.7906 18.9341C24.8219 18.8785 24.8719 18.8047 24.8979 18.7664H24.8958C25.5542 17.9662 28.0667 14.5028 28.4365 13.117C28.4375 13.1151 28.4385 13.1122 28.4385 13.1094C28.6385 12.4769 28.4552 12.0667 28.2656 11.8348C27.9802 11.4879 27.526 11.3125 26.9125 11.3125H24.349C23.4906 11.3125 22.8396 11.7102 22.5104 12.4357C21.9594 13.7246 20.4115 16.3754 19.251 17.3136C19.2156 15.9844 19.2396 14.9695 19.2583 14.2153C19.2958 12.7442 19.4167 11.3125 17.7573 11.3125H13.7281C12.6885 11.3125 11.6937 12.3571 12.7708 13.5972C13.7125 14.6839 13.1094 15.2896 13.3125 18.3045C12.5208 17.5235 11.1125 15.4142 10.1167 12.7184C9.8375 11.9891 9.41458 11.3135 8.22396 11.3135H5.66042C4.62083 11.3135 4 11.8348 4 12.7078C4 14.6686 8.71771 25.6875 16.651 25.6875ZM8.22396 12.751C8.45 12.751 8.47292 12.751 8.64062 13.1889C9.66042 15.9518 11.9479 20.04 13.6187 20.04C14.874 20.04 14.874 18.8565 14.874 18.4109L14.8729 14.8631C14.8042 13.6892 14.3396 13.1046 14.0344 12.75L17.6885 12.7538C17.6906 12.7701 17.6677 16.6782 17.699 17.625C17.699 18.9696 18.8594 19.7401 20.6708 18.0534C22.5823 16.0687 23.9042 13.1017 23.9573 12.981C24.0354 12.8085 24.1031 12.75 24.349 12.75H26.9125H26.9229C26.9219 12.7529 26.9219 12.7557 26.9208 12.7586C26.6865 13.7649 24.3729 16.9715 23.599 17.9672C23.5865 17.9825 23.575 17.9988 23.5635 18.0151C23.2229 18.5268 22.9458 19.0922 23.6104 19.8877H23.6115C23.6719 19.9548 23.8292 20.1119 24.0583 20.3304C24.7708 21.007 27.2146 23.3204 27.4312 24.2404C27.2875 24.2615 27.1313 24.2462 24.7094 24.251C24.1938 24.251 23.7906 23.5418 22.2521 22.1139C20.8687 20.8757 19.9708 20.3697 19.1531 20.3697C17.5656 20.3697 17.6812 21.5552 17.6958 22.9888C17.701 24.5433 17.6906 24.0516 17.7021 24.1494C17.6094 24.1829 17.3438 24.25 16.651 24.25C10.0417 24.25 5.7375 14.5986 5.57187 12.7538C5.62917 12.749 6.41771 12.7519 8.22396 12.751Z" fill="white"/>
</g>
<defs>
<clipPath id="clip0">
<rect x="4" y="7" width="25" height="23" fill="white"/>
</clipPath>
</defs>
</svg>
