<svg width="16" height="16" viewBox="0 0 16 16" fill="none" xmlns="http://www.w3.org/2000/svg">
<path d="M15.9984 12.8923C15.9761 12.2734 15.7183 11.6958 15.2725 11.266C14.3997 10.4243 13.6684 9.93844 12.971 9.73694C12.0103 9.45925 11.1203 9.71175 10.326 10.4874C10.3248 10.4886 10.3236 10.4898 10.3225 10.491L9.47746 11.3297C8.94936 11.032 7.92249 10.3783 6.81305 9.26891L6.7308 9.18672C5.62118 8.07712 4.96758 7.05005 4.67018 6.52255L5.50893 5.67751C5.51011 5.67632 5.5113 5.67514 5.51249 5.67392C6.28815 4.87973 6.54065 3.98979 6.26299 3.02887C6.06146 2.33159 5.57561 1.60027 4.73393 0.727425C4.30412 0.281704 3.72658 0.0238906 3.10768 0.00157802C2.4884 -0.0207658 1.89415 0.194798 1.43327 0.608487L1.41534 0.624612C1.40702 0.632081 1.3989 0.6398 1.39096 0.647706C0.473493 1.56518 -0.00744413 2.84959 8.71118e-05 4.36213C0.0129309 6.93158 1.42509 9.86997 3.77755 12.2224C4.22115 12.666 4.7253 13.105 5.27599 13.5273C5.5499 13.7373 5.94221 13.6855 6.15224 13.4116C6.3623 13.1376 6.31049 12.7453 6.03655 12.5353C5.52921 12.1463 5.06655 11.7436 4.66143 11.3386C2.53655 9.21372 1.26127 6.60339 1.25006 4.35591C1.24427 3.19103 1.59468 2.21874 2.26352 1.54293L2.2683 1.53862C2.72259 1.13083 3.41037 1.15565 3.83418 1.59512C5.45227 3.27319 5.33511 4.06541 4.62012 4.7986L3.46155 5.96586C3.27987 6.14892 3.22927 6.4248 3.33418 6.66042C3.36358 6.72649 4.07512 8.29877 5.84715 10.0708L5.92943 10.153C7.70124 11.9248 9.27355 12.6363 9.33961 12.6657C9.57518 12.7707 9.85111 12.7201 10.0341 12.5384L11.2014 11.3798C11.9347 10.6648 12.7269 10.5477 14.4049 12.1658C14.8444 12.5895 14.8692 13.2773 14.4615 13.7316L14.457 13.7365C13.7868 14.3999 12.8248 14.75 11.6726 14.75C11.6631 14.75 11.6536 14.75 11.6441 14.7499C10.7231 14.7453 9.65668 14.4929 8.56008 14.0199C8.24321 13.8831 7.87536 14.0292 7.73868 14.3462C7.60196 14.6632 7.74805 15.0309 8.06502 15.1677C9.33258 15.7144 10.5346 15.9944 11.6379 15.9999C11.6496 16 11.6612 16 11.673 16C13.1703 16 14.4419 15.5194 15.3523 14.6091C15.3602 14.6011 15.3679 14.593 15.3754 14.5847L15.3916 14.5666C15.8052 14.1058 16.0208 13.5112 15.9984 12.8923Z" fill="#2CB027"/>
</svg>
