<svg width="16" height="16" viewBox="0 0 16 16" fill="none" xmlns="http://www.w3.org/2000/svg">
<path d="M15.9594 13.7101C15.8891 13.3722 15.5582 13.1552 15.2201 13.2256C14.8822 13.2959 14.6653 13.6269 14.7357 13.9648C14.7762 14.1595 14.7279 14.359 14.6033 14.5123C14.5311 14.6011 14.3701 14.75 14.1033 14.75H1.89664C1.62983 14.75 1.46886 14.6011 1.39668 14.5123C1.27202 14.359 1.22377 14.1595 1.2643 13.9648C1.91293 10.8494 4.6609 8.57356 7.8343 8.49681C7.88927 8.49894 7.94449 8.5 7.99999 8.5C8.05568 8.5 8.11112 8.49891 8.1663 8.49678C10.4017 8.55041 12.4678 9.68262 13.719 11.5487C13.9112 11.8354 14.2995 11.9119 14.5862 11.7197C14.8729 11.5275 14.9495 11.1393 14.7572 10.8526C13.7317 9.32306 12.2426 8.21088 10.5446 7.65203C11.5793 6.87613 12.25 5.63991 12.25 4.25C12.25 1.90656 10.3435 0 7.99999 0C5.65652 0 3.74999 1.90656 3.74999 4.25C3.74999 5.64075 4.42149 6.87762 5.45727 7.65347C4.50827 7.96591 3.6178 8.45206 2.83843 9.09313C1.4093 10.2687 0.415644 11.9083 0.0405505 13.7101C-0.0770121 14.2747 0.0638317 14.8545 0.426894 15.301C0.788176 15.7452 1.32389 16 1.89664 16H14.1033C14.6761 16 15.2118 15.7452 15.5731 15.301C15.9362 14.8545 16.077 14.2747 15.9594 13.7101ZM4.99999 4.25C4.99999 2.59578 6.34577 1.25 7.99999 1.25C9.65421 1.25 11 2.59578 11 4.25C11 5.85328 9.73577 7.16684 8.15183 7.24619C8.1013 7.24525 8.05068 7.24478 7.99999 7.24478C7.94955 7.24478 7.89912 7.24528 7.84874 7.24622C6.26452 7.16719 4.99999 5.8535 4.99999 4.25Z" fill="#2CB027"/>
</svg>
