<svg width="220" height="34" viewBox="0 0 220 34" fill="none" xmlns="http://www.w3.org/2000/svg">
<path d="M62.349 11.3639H54.3586C54.2397 10.054 53.8117 9.02994 53.0745 8.29165C52.361 7.55335 51.386 7.18421 50.1494 7.18421C48.6274 7.18421 47.4503 7.79151 46.618 9.00612C45.7856 10.1969 45.3695 11.9831 45.3695 14.3647C45.3695 16.7701 45.7856 18.5801 46.618 19.7947C47.4741 20.9855 48.6512 21.5809 50.1494 21.5809C51.386 21.5809 52.3729 21.188 53.1101 20.402C53.8711 19.6161 54.3111 18.5206 54.43 17.1154H62.456C62.1944 20.5687 60.9697 23.2838 58.7819 25.2605C56.6178 27.2372 53.776 28.2256 50.2564 28.2256C46.2137 28.2256 43.0627 26.999 40.8035 24.546C38.5681 22.0691 37.4504 18.6754 37.4504 14.3647C37.4504 10.0778 38.58 6.69598 40.8392 4.21913C43.1222 1.74227 46.2612 0.503845 50.2564 0.503845C53.7284 0.503845 56.5465 1.46839 58.7105 3.39748C60.8746 5.32657 62.0874 7.98204 62.349 11.3639Z" fill="#2E2B29"/>
<path d="M74.4862 0.896807H82.4765L92.2148 27.7611H84.0104L82.6906 23.1885H73.9868L72.6313 27.7611H64.3912L74.4862 0.896807ZM78.4457 8.25592L75.7703 17.1869H80.9783L78.4457 8.25592Z" fill="#2E2B29"/>
<path d="M99.3552 0.968254H120.33V21.2951H123.683V33.084H116.905L116.727 27.7611H101.353L101.174 33.084H94.3612V21.2951H96.5015C98.404 19.7471 99.3552 17.1393 99.3552 13.4716V0.968254ZM112.696 7.47H106.703V13.8288C106.703 16.9487 106.109 19.4375 104.92 21.2951H112.696V7.47Z" fill="#2E2B29"/>
<path d="M135.936 0.896807H143.926L153.664 27.7611H145.46L144.14 23.1885H135.436L134.081 27.7611H125.841L135.936 0.896807ZM139.895 8.25592L137.22 17.1869H142.428L139.895 8.25592Z" fill="#2E2B29"/>
<path d="M9.56601 6.22322C9.56601 6.56151 9.48685 6.91038 9.32854 7.26981C9.17023 7.62925 8.95914 7.91997 8.69529 8.14197C9.58184 8.59655 10.0251 9.35242 10.0251 10.4096C10.0146 11.4245 9.70849 12.2649 9.1069 12.9309C8.50532 13.5864 7.66099 13.9141 6.57391 13.9141H1.38127V2.81387H6.1148C7.07523 2.81387 7.8879 3.14688 8.55281 3.81289C9.22827 4.46833 9.56601 5.27177 9.56601 6.22322ZM6.3681 9.50571H4.12007V11.3927H6.38393C6.74277 11.3927 6.9908 11.2395 7.128 10.9329C7.27576 10.6157 7.27576 10.2986 7.128 9.98143C6.98024 9.66428 6.72694 9.50571 6.3681 9.50571ZM5.89317 5.35106H4.12007V7.14295H5.909C6.26784 7.14295 6.51586 6.99495 6.65307 6.69894C6.80082 6.39237 6.80082 6.09107 6.65307 5.79507C6.50531 5.49906 6.25201 5.35106 5.89317 5.35106Z" fill="#2E2B29"/>
<path d="M12.0602 10.8377C11.733 10.0977 11.5694 9.27313 11.5694 8.36397C11.5694 7.45481 11.733 6.63023 12.0602 5.89021C12.3873 5.1502 12.8201 4.5529 13.3583 4.09832C13.9071 3.64374 14.514 3.29488 15.1789 3.05173C15.8438 2.80859 16.5351 2.68701 17.2528 2.68701C18.5193 2.68701 19.6539 3.04645 20.6565 3.76532C21.6592 4.47362 22.2607 5.52021 22.4613 6.90509H19.675C19.295 5.81621 18.4876 5.27177 17.2528 5.27177C16.4296 5.27177 15.7647 5.55721 15.2581 6.12808C14.7515 6.69894 14.4982 7.44424 14.4982 8.36397C14.4982 9.2097 14.7515 9.93386 15.2581 10.5364C15.7752 11.1285 16.4401 11.4297 17.2528 11.4403C17.8755 11.4403 18.4032 11.287 18.8359 10.9805C19.2792 10.6739 19.5747 10.2299 19.7225 9.64843H22.5088C22.3821 10.6422 22.0391 11.4826 21.4797 12.1698C20.9309 12.8463 20.2977 13.3274 19.58 13.6128C18.8623 13.8876 18.0866 14.0251 17.2528 14.0251C16.5351 14.0251 15.8438 13.9088 15.1789 13.6762C14.514 13.4331 13.9071 13.0842 13.3583 12.6296C12.8201 12.175 12.3873 11.5777 12.0602 10.8377Z" fill="#2E2B29"/>
<path d="M31.598 2.81387V5.35106H27.4977V6.92095H31.2655V9.44228H27.4977V11.3927H31.7405V13.9141H24.6797V2.81387H31.598Z" fill="#2E2B29"/>
<path d="M2.05014 27.8171V28.8855H0V25.6387H0.983514L4.30807 17.9518H5.37469L8.81007 25.6387H9.82129V28.8855H7.785V27.8171H2.05014ZM4.83446 22.1005L3.49078 25.6109H6.23354L4.83446 22.1005Z" fill="#2E2B29"/>
<path d="M16.289 22.1005L13.8233 27.7893H11.3991V27.4286L15.7626 17.9518H16.8293L21.2066 27.4286V27.7893H18.7824L16.289 22.1005Z" fill="#2E2B29"/>
<path d="M22.9265 27.4286L24.8243 24.3483C24.4272 24.08 24.1086 23.7331 23.8685 23.3076C23.6284 22.8821 23.476 22.4427 23.4114 21.9895C23.356 21.527 23.3883 21.0645 23.5083 20.602C23.6284 20.1302 23.8223 19.7093 24.0901 19.3393C24.3672 18.9693 24.7458 18.6687 25.226 18.4374C25.7155 18.1969 26.2649 18.0767 26.8744 18.0767H31.1271V27.7893H28.6475V24.931H27.3593L25.697 27.7893H22.9265V27.4286ZM26.8744 22.6971H28.6475V20.2967C28.5183 20.2967 28.3336 20.2967 28.0935 20.2967C27.8533 20.2967 27.6317 20.2967 27.4285 20.2967C27.2346 20.2967 27.0499 20.2967 26.8744 20.2967C26.6066 20.2967 26.3804 20.3799 26.1957 20.5465C26.0202 20.713 25.914 20.9165 25.8771 21.157C25.8401 21.3882 25.8448 21.6241 25.8909 21.8646C25.9371 22.0959 26.0479 22.2947 26.2234 22.4612C26.3988 22.6185 26.6159 22.6971 26.8744 22.6971Z" fill="#2E2B29"/>
<path d="M158.534 3.96336C158.534 1.77446 160.31 0 162.5 0H216.035C218.225 0 220 1.77446 220 3.96336V25.7618C220 27.9507 218.225 29.7252 216.035 29.7252H162.5C160.31 29.7252 158.534 27.9507 158.534 25.7618V3.96336Z" fill="#1BA529"/>
<path d="M165.588 24.6714C165.588 24.2821 165.73 23.9599 166.014 23.7046C166.297 23.4494 166.636 23.3218 167.03 23.3218C167.417 23.3218 167.752 23.4494 168.036 23.7046C168.32 23.9535 168.462 24.2757 168.462 24.6714C168.462 25.0415 168.326 25.3605 168.056 25.6285C167.785 25.8902 167.436 26.021 167.01 26.021C166.617 26.021 166.281 25.8933 166.004 25.6381C165.726 25.3765 165.588 25.0542 165.588 24.6714Z" fill="white"/>
<path d="M178.749 25.3318C177.962 25.7976 176.952 26.0305 175.72 26.0305C174.159 26.0305 172.894 25.5424 171.927 24.5661C170.959 23.5898 170.475 22.3135 170.475 20.7374C170.475 18.9698 170.994 17.5628 172.033 16.5163C173.072 15.4698 174.456 14.9466 176.185 14.9466C177.249 14.9466 178.11 15.1157 178.768 15.4539V17.5596C178.007 17.0172 177.185 16.746 176.301 16.746C175.256 16.746 174.407 17.0938 173.756 17.7893C173.11 18.4785 172.788 19.407 172.788 20.5747C172.788 21.7169 173.094 22.6135 173.707 23.2643C174.327 23.9088 175.156 24.2311 176.194 24.2311C177.097 24.2311 177.949 23.9439 178.749 23.3696V25.3318Z" fill="white"/>
<path d="M180.501 20.5843C180.501 18.8422 181.001 17.4671 182.001 16.4589C183.007 15.4507 184.375 14.9466 186.104 14.9466C187.736 14.9466 189.027 15.4347 189.975 16.411C190.923 17.3873 191.398 18.721 191.398 20.412C191.398 22.1157 190.898 23.4781 189.898 24.4991C188.898 25.52 187.562 26.0305 185.891 26.0305C184.252 26.0305 182.943 25.536 181.962 24.5469C180.988 23.5579 180.501 22.237 180.501 20.5843ZM182.814 20.5364C182.814 21.6978 183.098 22.6039 183.665 23.2548C184.239 23.9056 185.017 24.2311 185.998 24.2311C188.056 24.2311 189.085 22.9772 189.085 20.4694C189.085 19.257 188.82 18.3349 188.291 17.7032C187.762 17.0651 186.998 16.746 185.998 16.746C184.998 16.746 184.217 17.0842 183.656 17.7606C183.094 18.437 182.814 19.3623 182.814 20.5364Z" fill="white"/>
<path d="M209.756 25.7817H207.482V19.7132C207.482 18.6667 207.311 17.9106 206.969 17.4448C206.627 16.9789 206.082 16.746 205.333 16.746C204.688 16.746 204.133 17.0396 203.669 17.6266C203.204 18.2137 202.972 18.9316 202.972 19.7802V25.7817H200.707V19.5601C200.707 17.6841 199.981 16.746 198.53 16.746C197.859 16.746 197.301 17.03 196.856 17.5979C196.417 18.1658 196.198 18.8997 196.198 19.7994V25.7817H193.923V15.1954H196.198V16.8609H196.246C197.014 15.5847 198.136 14.9466 199.614 14.9466C201.117 14.9466 202.133 15.6517 202.662 17.0619C203.462 15.6517 204.656 14.9466 206.243 14.9466C208.585 14.9466 209.756 16.3791 209.756 19.2442V25.7817Z" fill="white"/>
<path fill-rule="evenodd" clip-rule="evenodd" d="M176.985 12.5153L176.985 3.397L170.637 3.397L170.551 3.42384C169.676 3.69584 167.733 4.90669 165.979 7.63456L165.761 7.9737L165.996 8.30177C166.48 8.97922 167.277 9.99512 168.106 10.8483C168.52 11.2739 168.955 11.6738 169.374 11.9716C169.768 12.2517 170.247 12.5153 170.727 12.5153L176.985 12.5153ZM175.796 11.3259L170.727 11.3259C170.641 11.3259 170.424 11.2591 170.063 11.0023C169.727 10.7633 169.348 10.4199 168.959 10.0196C168.306 9.34757 167.665 8.55691 167.204 7.93938C168.707 5.73697 170.24 4.80662 170.826 4.58634L175.796 4.58634L175.796 11.3259Z" fill="white"/>
<path fill-rule="evenodd" clip-rule="evenodd" d="M204.142 7.26197L172.426 7.26197C172.043 7.26197 171.732 7.57259 171.732 7.95575C171.732 8.33892 172.043 8.64953 172.426 8.64953L204.142 8.64953L204.142 7.26197Z" fill="white"/>
<path fill-rule="evenodd" clip-rule="evenodd" d="M204.179 5.54205C204.065 6.08976 203.908 6.80576 203.579 7.76309L203.513 7.95595L203.579 8.14882C203.908 9.10615 204.065 9.82215 204.179 10.3699C204.186 10.4033 204.193 10.4364 204.2 10.4693C204.248 10.7011 204.294 10.919 204.344 11.1062C204.401 11.3205 204.476 11.5426 204.601 11.7413C204.893 12.2049 205.343 12.3752 205.878 12.4477C206.375 12.5151 207.08 12.5151 208.047 12.5151L208.701 12.5151V3.39682H208.106C208.087 3.39682 208.067 3.39682 208.047 3.39682C207.08 3.39679 206.375 3.39677 205.878 3.46416C205.343 3.53667 204.893 3.70705 204.601 4.17058C204.476 4.3693 204.401 4.59142 204.344 4.80574C204.294 4.99289 204.248 5.2108 204.2 5.44257C204.193 5.47547 204.186 5.50864 204.179 5.54205ZM207.512 4.58681C206.817 4.58905 206.36 4.599 206.038 4.64271C205.676 4.6918 205.632 4.76466 205.611 4.79898C205.61 4.80058 205.609 4.80209 205.608 4.80352C205.577 4.85258 205.539 4.94018 205.493 5.11301C205.452 5.26572 205.414 5.44736 205.364 5.68566C205.358 5.71802 205.351 5.75143 205.343 5.78595C205.232 6.31709 205.077 7.02652 204.769 7.95595C205.077 8.88539 205.232 9.59481 205.343 10.126C205.351 10.1605 205.358 10.1939 205.364 10.2262C205.414 10.4645 205.452 10.6462 205.493 10.7989C205.539 10.9717 205.577 11.0593 205.608 11.1084C205.609 11.1098 205.61 11.1113 205.611 11.1129C205.632 11.1472 205.676 11.2201 206.038 11.2692C206.36 11.3129 206.817 11.3229 207.512 11.3251V4.58681Z" fill="white"/>
</svg>
