<svg width="25" height="25" viewBox="0 0 25 25" fill="none" xmlns="http://www.w3.org/2000/svg">
<path d="M12.5 3.90625C9.13452 3.90625 6.39648 6.64429 6.39648 10.0098C6.39648 13.3752 9.13452 16.1133 12.5 16.1133C13.0684 16.1133 13.6316 16.035 14.1739 15.8806C14.6927 15.733 14.9935 15.1928 14.8458 14.674C14.6981 14.1553 14.158 13.8544 13.6392 14.0021C13.2708 14.107 12.8875 14.1602 12.5 14.1602C10.2115 14.1602 8.34961 12.2983 8.34961 10.0098C8.34961 7.72124 10.2115 5.85938 12.5 5.85938C14.7885 5.85938 16.6504 7.72124 16.6504 10.0098C16.6504 10.4169 16.5918 10.8188 16.4762 11.2042C16.3213 11.7208 16.6145 12.2652 17.1311 12.4202C17.6478 12.575 18.192 12.2819 18.347 11.7653C18.5172 11.1978 18.6035 10.6071 18.6035 10.0098C18.6035 6.64429 15.8655 3.90625 12.5 3.90625Z" fill="#2E2B29"/>
<path d="M19.5741 2.92793C17.684 1.03984 15.1717 0 12.5 0C9.82836 0 7.3161 1.03984 5.42596 2.92798C3.53602 4.81597 2.49349 7.32681 2.49042 10.0001C2.49232 11.9462 3.03285 13.772 4.14281 15.5819C5.10399 17.1492 6.35267 18.5167 7.67465 19.9644C8.97089 21.3839 10.3112 22.8518 11.3816 24.5452C11.5605 24.8283 11.8722 25 12.2071 25H12.793C13.1279 25 13.4395 24.8283 13.6185 24.5452C14.6889 22.8517 16.0292 21.3838 17.3254 19.9644C18.6474 18.5166 19.8961 17.1492 20.8573 15.5819C21.9673 13.7719 22.5078 11.9461 22.5097 9.998C22.5066 7.32676 21.4641 4.81592 19.5741 2.92793ZM15.8831 18.6474C14.7306 19.9096 13.5447 21.2083 12.5 22.702C11.4554 21.2083 10.2695 19.9096 9.11693 18.6474C6.61112 15.9032 4.44696 13.5332 4.44354 10.0003C4.44862 5.56309 8.06278 1.95312 12.5 1.95312C16.9373 1.95312 20.5515 5.56309 20.5565 9.99819C20.5531 13.5332 18.389 15.9032 15.8831 18.6474Z" fill="#2CB027"/>
</svg>
